<svg width="120" height="40" viewBox="0 0 120 40" fill="none" xmlns="http://www.w3.org/2000/svg">
<g clip-path="url(#clip0_76_6222)">
<path d="M0 7C0 3.13401 3.13401 0 7 0H112.664C116.53 0 119.664 3.13401 119.664 7V33C119.664 36.866 116.53 40 112.664 40H7C3.134 40 0 36.866 0 33V7Z" fill="white"/>
<path d="M110.135 -0.000114141H9.53468C9.16798 -0.000114141 8.80568 -0.000114141 8.43995 0.00188586C8.1338 0.00388586 7.83009 0.00969586 7.521 0.0145859C6.84951 0.0224877 6.17961 0.0815621 5.5171 0.191296C4.85552 0.303418 4.21467 0.514802 3.61622 0.818296C3.0185 1.12436 2.47235 1.52205 1.99757 1.99696C1.5203 2.47052 1.12246 3.0179 0.81935 3.61805C0.5154 4.21699 0.304641 4.85882 0.19435 5.52137C0.0830109 6.18307 0.0230984 6.85241 0.01515 7.52337C0.00587 7.82997 0.00489 8.13759 0 8.44423V31.5585C0.00489 31.869 0.00587 32.1698 0.01515 32.4804C0.0231008 33.1513 0.0830134 33.8206 0.19435 34.4823C0.304336 35.1452 0.515108 35.7874 0.81935 36.3866C1.12233 36.9848 1.52022 37.53 1.99757 38.0009C2.47054 38.4779 3.01705 38.8759 3.61622 39.1796C4.21467 39.4839 4.85545 39.6965 5.5171 39.8104C6.17972 39.9192 6.84956 39.9783 7.521 39.9872C7.83009 39.994 8.1338 39.9979 8.43995 39.9979C8.80567 39.9999 9.168 39.9999 9.53468 39.9999H110.135C110.494 39.9999 110.859 39.9999 111.219 39.9979C111.523 39.9979 111.836 39.994 112.141 39.9872C112.811 39.9788 113.479 39.9197 114.141 39.8104C114.804 39.6957 115.448 39.4831 116.049 39.1796C116.647 38.8757 117.193 38.4777 117.666 38.0009C118.142 37.5281 118.541 36.9833 118.848 36.3866C119.15 35.787 119.358 35.1448 119.467 34.4823C119.578 33.8205 119.64 33.1514 119.652 32.4804C119.656 32.1698 119.656 31.869 119.656 31.5585C119.664 31.1952 119.664 30.8339 119.664 30.4647V9.53602C119.664 9.16981 119.664 8.80653 119.656 8.44423C119.656 8.13759 119.656 7.82997 119.652 7.52333C119.64 6.85231 119.578 6.18312 119.467 5.52133C119.358 4.85917 119.149 4.21739 118.848 3.61801C118.23 2.41508 117.252 1.43591 116.049 0.818206C115.448 0.515453 114.804 0.304126 114.141 0.191206C113.48 0.0809886 112.811 0.0218936 112.141 0.0144459C111.836 0.00956586 111.523 0.00370586 111.219 0.00175586C110.859 -0.000244141 110.494 -0.000244141 110.135 -0.000244141V-0.000114141Z" fill="#A6A6A6"/>
<path d="M8.44487 39.125C8.14019 39.125 7.84287 39.1211 7.54058 39.1143C6.91436 39.1061 6.2896 39.0516 5.67144 38.9512C5.09503 38.8519 4.53664 38.6673 4.0147 38.4033C3.49754 38.1415 3.02585 37.7983 2.6177 37.3867C2.20364 36.98 1.85891 36.5082 1.59719 35.9902C1.33258 35.4688 1.14945 34.9099 1.05419 34.333C0.951311 33.7131 0.895651 33.0863 0.887687 32.458C0.881347 32.2471 0.873047 31.5449 0.873047 31.5449V8.44434C0.873047 8.44434 0.881887 7.75293 0.887737 7.5498C0.895363 6.92248 0.950699 6.29665 1.05327 5.67773C1.14871 5.09925 1.33197 4.53875 1.59673 4.01563C1.85749 3.49794 2.2003 3.02586 2.61187 2.61768C3.02297 2.20562 3.49617 1.8606 4.01421 1.59521C4.53495 1.33209 5.09228 1.14873 5.66753 1.05127C6.28772 0.949836 6.91465 0.894996 7.54304 0.88721L8.44536 0.875H111.214L112.127 0.8877C112.75 0.895099 113.371 0.94945 113.985 1.05029C114.566 1.14898 115.13 1.33362 115.656 1.59814C116.694 2.13299 117.539 2.97916 118.071 4.01807C118.332 4.53758 118.512 5.09351 118.607 5.66699C118.71 6.29099 118.768 6.92174 118.78 7.5542C118.783 7.8374 118.783 8.1416 118.783 8.44434C118.791 8.81934 118.791 9.17627 118.791 9.53613V30.4648C118.791 30.8281 118.791 31.1826 118.783 31.54C118.783 31.8652 118.783 32.1631 118.779 32.4697C118.768 33.0909 118.711 33.7104 118.608 34.3232C118.515 34.9043 118.333 35.4675 118.068 35.9932C117.805 36.5056 117.462 36.9733 117.053 37.3789C116.644 37.7927 116.172 38.1379 115.653 38.4014C115.128 38.6674 114.566 38.8527 113.985 38.9512C113.367 39.0522 112.742 39.1067 112.116 39.1143C111.823 39.1211 111.517 39.125 111.219 39.125L110.135 39.127L8.44487 39.125Z" fill="black"/>
<path d="M24.769 20.3006C24.7797 19.4659 25.0014 18.6475 25.4135 17.9216C25.8255 17.1956 26.4145 16.5857 27.1256 16.1485C26.6738 15.5034 26.0779 14.9724 25.385 14.5979C24.6922 14.2233 23.9216 14.0155 23.1344 13.9908C21.4552 13.8146 19.8272 14.9957 18.9715 14.9957C18.0992 14.9957 16.7817 14.0083 15.363 14.0375C14.4453 14.0672 13.551 14.334 12.7671 14.8121C11.9832 15.2901 11.3365 15.9631 10.8901 16.7654C8.95607 20.1138 10.3987 25.0349 12.2513 27.7415C13.1782 29.0668 14.2615 30.5473 15.6789 30.4948C17.066 30.4372 17.584 29.6103 19.2583 29.6103C20.9171 29.6103 21.4031 30.4948 22.8493 30.4614C24.3377 30.4372 25.2754 29.1302 26.1698 27.7923C26.8358 26.8479 27.3483 25.8042 27.6882 24.6997C26.8235 24.334 26.0856 23.7218 25.5665 22.9395C25.0474 22.1572 24.77 21.2394 24.769 20.3006Z" fill="white"/>
<path d="M22.0376 12.2108C22.8491 11.2366 23.2489 9.98445 23.1521 8.72021C21.9123 8.85044 20.767 9.44299 19.9445 10.3798C19.5424 10.8375 19.2344 11.3699 19.0381 11.9467C18.8419 12.5235 18.7612 13.1333 18.8008 13.7412C19.4209 13.7476 20.0344 13.6132 20.5951 13.3481C21.1558 13.083 21.649 12.6942 22.0376 12.2108Z" fill="white"/>
<path d="M42.3027 27.1397H37.5693L36.4326 30.4961H34.4277L38.9111 18.0781H40.9941L45.4775 30.4961H43.4385L42.3027 27.1397ZM38.0596 25.5908H41.8116L39.962 20.1436H39.9102L38.0596 25.5908Z" fill="white"/>
<path d="M55.1602 25.9697C55.1602 28.7832 53.6543 30.5908 51.3819 30.5908C50.8062 30.6209 50.2337 30.4883 49.7299 30.2082C49.2261 29.928 48.8114 29.5117 48.5332 29.0068H48.4902V33.4912H46.6318V21.4423H48.4307V22.9482H48.4649C48.7558 22.4457 49.1776 22.0316 49.6852 21.7497C50.1928 21.4679 50.7674 21.3289 51.3477 21.3476C53.6455 21.3476 55.1602 23.164 55.1602 25.9697ZM53.25 25.9697C53.25 24.1367 52.3028 22.9316 50.8574 22.9316C49.4375 22.9316 48.4824 24.1621 48.4824 25.9697C48.4824 27.7939 49.4375 29.0156 50.8574 29.0156C52.3028 29.0156 53.25 27.8193 53.25 25.9697Z" fill="white"/>
<path d="M65.125 25.9697C65.125 28.7832 63.6192 30.5908 61.3467 30.5908C60.7711 30.6209 60.1986 30.4883 59.6948 30.2081C59.191 29.928 58.7762 29.5117 58.4981 29.0068H58.4551V33.4912H56.5967V21.4423H58.3955V22.9482H58.4297C58.7206 22.4457 59.1424 22.0315 59.65 21.7497C60.1576 21.4679 60.7322 21.3289 61.3125 21.3476C63.6104 21.3476 65.125 23.164 65.125 25.9697ZM63.2149 25.9697C63.2149 24.1367 62.2676 22.9316 60.8223 22.9316C59.4024 22.9316 58.4473 24.1621 58.4473 25.9697C58.4473 27.7939 59.4024 29.0156 60.8223 29.0156C62.2676 29.0156 63.2149 27.8193 63.2149 25.9697H63.2149Z" fill="white"/>
<path d="M71.711 27.0362C71.8487 28.2676 73.045 29.0762 74.6797 29.0762C76.2461 29.0762 77.3731 28.2676 77.3731 27.1572C77.3731 26.1934 76.6934 25.6162 75.084 25.2207L73.4746 24.833C71.1944 24.2822 70.1358 23.2158 70.1358 21.4854C70.1358 19.3428 72.003 17.8711 74.6543 17.8711C77.2783 17.8711 79.0772 19.3428 79.1377 21.4854H77.2617C77.1494 20.2461 76.125 19.4981 74.6279 19.4981C73.1309 19.4981 72.1065 20.2549 72.1065 21.3565C72.1065 22.2344 72.7608 22.751 74.3613 23.1465L75.7295 23.4824C78.2773 24.0849 79.3359 25.1084 79.3359 26.9248C79.3359 29.248 77.4854 30.7031 74.542 30.7031C71.7881 30.7031 69.9287 29.2822 69.8086 27.0361L71.711 27.0362Z" fill="white"/>
<path d="M83.3467 19.2998V21.4424H85.0684V22.9141H83.3467V27.9053C83.3467 28.6807 83.6914 29.042 84.4482 29.042C84.6526 29.0384 84.8567 29.0241 85.0596 28.999V30.4619C84.7193 30.5255 84.3734 30.5543 84.0273 30.5478C82.1943 30.5478 81.4795 29.8593 81.4795 28.1035V22.9141H80.1631V21.4424H81.4795V19.2998H83.3467Z" fill="white"/>
<path d="M86.0654 25.9697C86.0654 23.1211 87.7432 21.3311 90.3594 21.3311C92.9844 21.3311 94.6543 23.1211 94.6543 25.9697C94.6543 28.8262 92.9932 30.6084 90.3594 30.6084C87.7265 30.6084 86.0654 28.8262 86.0654 25.9697ZM92.7607 25.9697C92.7607 24.0156 91.8652 22.8623 90.3594 22.8623C88.8535 22.8623 87.959 24.0244 87.959 25.9697C87.959 27.9316 88.8535 29.0762 90.3594 29.0762C91.8652 29.0762 92.7607 27.9316 92.7607 25.9697H92.7607Z" fill="white"/>
<path d="M96.1865 21.4425H97.959V22.9835H98.002C98.1219 22.5022 98.4039 22.0769 98.8005 21.779C99.197 21.4811 99.6841 21.3288 100.18 21.3478C100.394 21.347 100.607 21.3703 100.816 21.4171V23.1554C100.546 23.0728 100.264 23.0348 99.9814 23.0431C99.7115 23.0321 99.4423 23.0797 99.1925 23.1826C98.9426 23.2855 98.718 23.4412 98.534 23.6391C98.3501 23.837 98.2111 24.0724 98.1267 24.3291C98.0422 24.5857 98.0143 24.8576 98.0449 25.1261V30.4962H96.1865L96.1865 21.4425Z" fill="white"/>
<path d="M109.385 27.8369C109.135 29.4805 107.534 30.6084 105.486 30.6084C102.853 30.6084 101.218 28.8437 101.218 26.0127C101.218 23.1729 102.861 21.3311 105.408 21.3311C107.913 21.3311 109.488 23.0518 109.488 25.7969V26.4336H103.094V26.5459C103.064 26.8791 103.106 27.2148 103.216 27.5306C103.326 27.8464 103.502 28.1352 103.733 28.3778C103.963 28.6203 104.242 28.8111 104.552 28.9374C104.862 29.0637 105.195 29.1226 105.529 29.1103C105.968 29.1515 106.409 29.0498 106.786 28.8203C107.163 28.5909 107.455 28.246 107.62 27.8369L109.385 27.8369ZM103.103 25.1348H107.629C107.646 24.8352 107.6 24.5354 107.495 24.2541C107.391 23.9729 107.229 23.7164 107.021 23.5006C106.812 23.2849 106.561 23.1145 106.284 23.0003C106.006 22.8861 105.708 22.8305 105.408 22.8369C105.106 22.8351 104.806 22.8933 104.526 23.008C104.245 23.1227 103.991 23.2918 103.777 23.5054C103.562 23.7191 103.392 23.973 103.277 24.2527C103.161 24.5323 103.102 24.8321 103.103 25.1348V25.1348Z" fill="white"/>
<path d="M37.8262 8.73065C38.2158 8.70269 38.6067 8.76155 38.9709 8.90298C39.335 9.04441 39.6632 9.26489 39.9317 9.54852C40.2003 9.83214 40.4026 10.1718 40.524 10.5431C40.6454 10.9144 40.6829 11.308 40.6338 11.6955C40.6338 13.6017 39.6035 14.6975 37.8262 14.6975H35.6709V8.73065H37.8262ZM36.5976 13.8536H37.7226C38.0011 13.8703 38.2797 13.8246 38.5382 13.72C38.7967 13.6154 39.0287 13.4545 39.2172 13.2489C39.4057 13.0433 39.546 12.7983 39.6278 12.5317C39.7097 12.2651 39.7311 11.9836 39.6904 11.7076C39.7281 11.4328 39.7046 11.153 39.6215 10.8884C39.5383 10.6237 39.3977 10.3807 39.2096 10.1768C39.0216 9.97285 38.7907 9.81304 38.5337 9.70881C38.2766 9.60457 37.9996 9.55849 37.7226 9.57386H36.5976V13.8536Z" fill="white"/>
<path d="M41.6809 12.444C41.6526 12.1481 41.6865 11.8496 41.7803 11.5675C41.8742 11.2854 42.0259 11.0261 42.2259 10.8061C42.4258 10.5861 42.6695 10.4103 42.9414 10.2901C43.2132 10.1698 43.5072 10.1077 43.8045 10.1077C44.1017 10.1077 44.3957 10.1698 44.6676 10.2901C44.9394 10.4103 45.1832 10.5861 45.3831 10.8061C45.583 11.0261 45.7348 11.2854 45.8286 11.5675C45.9225 11.8496 45.9563 12.1481 45.928 12.444C45.9569 12.7403 45.9234 13.0392 45.8298 13.3218C45.7362 13.6043 45.5846 13.8641 45.3846 14.0845C45.1846 14.3049 44.9407 14.4811 44.6686 14.6016C44.3964 14.7221 44.1021 14.7844 43.8045 14.7844C43.5069 14.7844 43.2125 14.7221 42.9404 14.6016C42.6683 14.4811 42.4244 14.3049 42.2244 14.0845C42.0244 13.8641 41.8727 13.6043 41.7791 13.3218C41.6855 13.0392 41.6521 12.7403 41.6809 12.444ZM45.0139 12.444C45.0139 11.468 44.5755 10.8972 43.8059 10.8972C43.0335 10.8972 42.5989 11.468 42.5989 12.4441C42.5989 13.4279 43.0335 13.9943 43.8059 13.9943C44.5755 13.9943 45.014 13.424 45.014 12.444H45.0139Z" fill="white"/>
<path d="M51.5732 14.6975H50.6514L49.7207 11.3811H49.6504L48.7236 14.6975H47.8105L46.5693 10.1946H47.4707L48.2773 13.6306H48.3438L49.2695 10.1946H50.1221L51.0479 13.6306H51.1182L51.9209 10.1946H52.8096L51.5732 14.6975Z" fill="white"/>
<path d="M53.8535 10.1946H54.709V10.91H54.7754C54.888 10.653 55.0781 10.4377 55.3189 10.2939C55.5598 10.15 55.8395 10.085 56.1191 10.1077C56.3382 10.0912 56.5582 10.1243 56.7628 10.2044C56.9674 10.2845 57.1514 10.4096 57.3011 10.5704C57.4508 10.7313 57.5623 10.9237 57.6275 11.1335C57.6927 11.3434 57.7099 11.5652 57.6777 11.7825V14.6975H56.7891V12.0057C56.7891 11.282 56.4746 10.9222 55.8174 10.9222C55.6686 10.9152 55.5201 10.9406 55.3821 10.9964C55.244 11.0522 55.1197 11.1372 55.0175 11.2456C54.9154 11.354 54.8379 11.4832 54.7904 11.6243C54.7429 11.7655 54.7264 11.9152 54.7422 12.0633V14.6976H53.8535L53.8535 10.1946Z" fill="white"/>
<path d="M59.0938 8.43677H59.9824V14.6975H59.0938V8.43677Z" fill="white"/>
<path d="M61.218 12.4441C61.1897 12.1482 61.2236 11.8496 61.3175 11.5675C61.4113 11.2854 61.5631 11.0261 61.7631 10.8061C61.963 10.5861 62.2068 10.4104 62.4786 10.2901C62.7505 10.1698 63.0445 10.1077 63.3418 10.1077C63.6391 10.1077 63.9331 10.1698 64.205 10.2901C64.4768 10.4104 64.7206 10.5861 64.9205 10.8061C65.1205 11.0261 65.2723 11.2854 65.3661 11.5675C65.46 11.8496 65.4939 12.1482 65.4656 12.4441C65.4944 12.7404 65.4609 13.0393 65.3673 13.3219C65.2737 13.6044 65.122 13.8642 64.922 14.0846C64.722 14.305 64.478 14.4811 64.2059 14.6017C63.9338 14.7222 63.6394 14.7845 63.3418 14.7845C63.0442 14.7845 62.7498 14.7222 62.4777 14.6017C62.2056 14.4811 61.9617 14.305 61.7616 14.0846C61.5616 13.8642 61.4099 13.6044 61.3163 13.3219C61.2227 13.0393 61.1892 12.7404 61.218 12.4441ZM64.551 12.4441C64.551 11.4681 64.1125 10.8973 63.343 10.8973C62.5706 10.8973 62.136 11.4681 62.136 12.4441C62.136 13.428 62.5706 13.9944 63.343 13.9944C64.1126 13.9944 64.551 13.4241 64.551 12.4441H64.551Z" fill="white"/>
<path d="M66.4004 13.4241C66.4004 12.6135 67.0039 12.1462 68.0752 12.0798L69.2949 12.0095V11.6208C69.2949 11.1453 68.9805 10.8767 68.373 10.8767C67.877 10.8767 67.5332 11.0588 67.4346 11.3772H66.5742C66.665 10.6038 67.3926 10.1077 68.4141 10.1077C69.543 10.1077 70.1797 10.6697 70.1797 11.6208V14.6975H69.3242V14.0647H69.2539C69.1112 14.2917 68.9108 14.4767 68.6732 14.6009C68.4355 14.7252 68.1692 14.7841 67.9014 14.7717C67.7123 14.7914 67.5213 14.7712 67.3405 14.7125C67.1598 14.6538 66.9933 14.5579 66.8519 14.4309C66.7105 14.3039 66.5972 14.1487 66.5195 13.9753C66.4417 13.8019 66.4011 13.6141 66.4004 13.4241ZM69.2949 13.0393V12.6628L68.1953 12.7331C67.5752 12.7746 67.2939 12.9856 67.2939 13.3826C67.2939 13.7878 67.6455 14.0237 68.1289 14.0237C68.2706 14.038 68.4137 14.0237 68.5497 13.9816C68.6857 13.9395 68.8118 13.8705 68.9206 13.7787C69.0294 13.6868 69.1186 13.574 69.1829 13.447C69.2472 13.32 69.2853 13.1813 69.2949 13.0393Z" fill="white"/>
<path d="M71.3477 12.4441C71.3477 11.0213 72.0791 10.1199 73.2168 10.1199C73.4982 10.1069 73.7775 10.1743 74.022 10.3142C74.2666 10.4541 74.4662 10.6607 74.5977 10.9099H74.6641V8.43677H75.5527V14.6975H74.7012V13.9861H74.6309C74.4893 14.2336 74.2826 14.4376 74.0334 14.5761C73.7841 14.7146 73.5017 14.7822 73.2168 14.7717C72.0713 14.7718 71.3477 13.8704 71.3477 12.4441ZM72.2657 12.4441C72.2657 13.3992 72.7159 13.9739 73.4688 13.9739C74.2178 13.9739 74.6807 13.3909 74.6807 12.448C74.6807 11.5095 74.2129 10.9182 73.4688 10.9182C72.7207 10.9182 72.2656 11.4968 72.2656 12.4441H72.2657Z" fill="white"/>
<path d="M79.2298 12.444C79.2015 12.1481 79.2353 11.8496 79.3292 11.5675C79.423 11.2854 79.5748 11.0261 79.7747 10.8061C79.9746 10.5861 80.2183 10.4103 80.4902 10.2901C80.762 10.1698 81.056 10.1077 81.3533 10.1077C81.6506 10.1077 81.9446 10.1698 82.2164 10.2901C82.4883 10.4103 82.732 10.5861 82.9319 10.8061C83.1319 11.0261 83.2836 11.2854 83.3775 11.5675C83.4713 11.8496 83.5052 12.1481 83.4768 12.444C83.5057 12.7403 83.4722 13.0392 83.3786 13.3218C83.2851 13.6043 83.1334 13.8641 82.9334 14.0845C82.7334 14.3049 82.4895 14.4811 82.2174 14.6016C81.9453 14.7221 81.6509 14.7844 81.3533 14.7844C81.0557 14.7844 80.7613 14.7221 80.4892 14.6016C80.2171 14.4811 79.9732 14.3049 79.7732 14.0845C79.5732 13.8641 79.4216 13.6043 79.328 13.3218C79.2344 13.0392 79.2009 12.7403 79.2298 12.444ZM82.5628 12.444C82.5628 11.468 82.1243 10.8972 81.3548 10.8972C80.5823 10.8972 80.1478 11.468 80.1478 12.4441C80.1478 13.4279 80.5823 13.9943 81.3548 13.9943C82.1243 13.9943 82.5628 13.424 82.5628 12.444Z" fill="white"/>
<path d="M84.6689 10.1946H85.5244V10.91H85.5908C85.7035 10.653 85.8935 10.4377 86.1344 10.2939C86.3752 10.15 86.655 10.085 86.9346 10.1077C87.1537 10.0912 87.3737 10.1243 87.5783 10.2044C87.7829 10.2845 87.9668 10.4096 88.1165 10.5704C88.2662 10.7313 88.3778 10.9237 88.443 11.1335C88.5082 11.3434 88.5253 11.5652 88.4932 11.7825V14.6975H87.6045V12.0057C87.6045 11.282 87.2901 10.9222 86.6328 10.9222C86.4841 10.9152 86.3356 10.9406 86.1975 10.9964C86.0594 11.0522 85.9351 11.1372 85.833 11.2456C85.7308 11.354 85.6534 11.4832 85.6058 11.6243C85.5583 11.7655 85.5419 11.9152 85.5576 12.0633V14.6976H84.6689V10.1946Z" fill="white"/>
<path d="M93.5146 9.07349V10.2151H94.4902V10.9636H93.5146V13.2791C93.5146 13.7507 93.709 13.9573 94.1514 13.9573C94.2646 13.9569 94.3778 13.9501 94.4902 13.9368V14.677C94.3307 14.7055 94.169 14.7207 94.0068 14.7224C93.0186 14.7224 92.625 14.3747 92.625 13.5066V10.9636H91.9102V10.215H92.625V9.07349H93.5146Z" fill="white"/>
<path d="M95.7051 8.43677H96.5859V10.9182H96.6562C96.7744 10.6589 96.9696 10.4423 97.2153 10.298C97.461 10.1536 97.7452 10.0885 98.0292 10.1116C98.2472 10.0997 98.4651 10.1361 98.6674 10.2181C98.8697 10.3002 99.0513 10.4259 99.1995 10.5862C99.3476 10.7465 99.4585 10.9376 99.5243 11.1457C99.5901 11.3539 99.6091 11.5739 99.58 11.7903V14.6975H98.6905V12.0095C98.6905 11.2903 98.3555 10.926 97.7276 10.926C97.5748 10.9135 97.4212 10.9345 97.2774 10.9875C97.1337 11.0406 97.0032 11.1244 96.8952 11.2332C96.7872 11.3419 96.7043 11.4729 96.6522 11.6171C96.6002 11.7612 96.5802 11.915 96.5938 12.0676V14.6975H95.7051L95.7051 8.43677Z" fill="white"/>
<path d="M104.761 13.4818C104.641 13.8933 104.379 14.2493 104.022 14.4874C103.666 14.7256 103.237 14.8307 102.81 14.7845C102.514 14.7923 102.219 14.7355 101.946 14.618C101.674 14.5004 101.43 14.325 101.232 14.1039C101.034 13.8827 100.887 13.6212 100.8 13.3374C100.713 13.0535 100.69 12.7543 100.73 12.4603C100.691 12.1654 100.715 11.8655 100.801 11.5808C100.888 11.2961 101.035 11.0334 101.231 10.8103C101.428 10.5872 101.671 10.409 101.943 10.2878C102.214 10.1666 102.509 10.1052 102.806 10.1077C104.059 10.1077 104.815 10.9637 104.815 12.3777V12.6878H101.635V12.7376C101.621 12.9029 101.642 13.0692 101.696 13.226C101.751 13.3827 101.837 13.5264 101.95 13.6479C102.063 13.7693 102.2 13.8658 102.352 13.9312C102.504 13.9966 102.669 14.0295 102.835 14.0276C103.047 14.0532 103.263 14.0149 103.453 13.9177C103.644 13.8205 103.802 13.6687 103.906 13.4817L104.761 13.4818ZM101.635 12.0306H103.91C103.921 11.8795 103.9 11.7277 103.85 11.5849C103.799 11.4422 103.718 11.3117 103.614 11.2019C103.51 11.092 103.383 11.0052 103.243 10.9471C103.103 10.8889 102.953 10.8606 102.801 10.8641C102.648 10.8622 102.495 10.891 102.353 10.949C102.21 11.0069 102.081 11.0928 101.972 11.2015C101.864 11.3102 101.778 11.4396 101.72 11.582C101.662 11.7244 101.633 11.8769 101.635 12.0306H101.635Z" fill="white"/>
</g>
<defs>
<clipPath id="clip0_76_6222">
<path d="M0 7C0 3.13401 3.13401 0 7 0H112.664C116.53 0 119.664 3.13401 119.664 7V33C119.664 36.866 116.53 40 112.664 40H7C3.134 40 0 36.866 0 33V7Z" fill="white"/>
</clipPath>
</defs>
</svg>
