<svg width="41" height="41" viewBox="0 0 41 41" fill="none" xmlns="http://www.w3.org/2000/svg">
<path d="M29.042 5.12492H35.8753C36.3284 5.12492 36.7629 5.3049 37.0833 5.62528C37.4037 5.94565 37.5837 6.38017 37.5837 6.83325V34.1666C37.5837 34.6197 37.4037 35.0542 37.0833 35.3746C36.7629 35.6949 36.3284 35.8749 35.8753 35.8749H5.12533C4.67225 35.8749 4.23773 35.6949 3.91735 35.3746C3.59698 35.0542 3.41699 34.6197 3.41699 34.1666V6.83325C3.41699 6.38017 3.59698 5.94565 3.91735 5.62528C4.23773 5.3049 4.67225 5.12492 5.12533 5.12492H11.9587V1.70825H15.3753V5.12492H25.6253V1.70825H29.042V5.12492ZM6.83366 15.3749V32.4583H34.167V15.3749H6.83366ZM10.2503 18.7916H13.667V22.2083H10.2503V18.7916ZM18.792 18.7916H22.2087V22.2083H18.792V18.7916ZM27.3337 18.7916H30.7503V22.2083H27.3337V18.7916Z" fill="#1D9BF0"/>
</svg>
