<svg width="35" height="32" viewBox="0 0 35 32" fill="none" xmlns="http://www.w3.org/2000/svg">
<path d="M5 4.5V0H8V4.5H12.5V7.5H8V12H5V7.5H0.5V4.5H5ZM9.5 13.5V9H14V4.5H24.5L27.245 7.5H32C33.65 7.5 35 8.85 35 10.5V28.5C35 30.15 33.65 31.5 32 31.5H8C6.35 31.5 5 30.15 5 28.5V13.5H9.5ZM20 27C24.14 27 27.5 23.64 27.5 19.5C27.5 15.36 24.14 12 20 12C15.86 12 12.5 15.36 12.5 19.5C12.5 23.64 15.86 27 20 27ZM15.2 19.5C15.2 22.155 17.345 24.3 20 24.3C22.655 24.3 24.8 22.155 24.8 19.5C24.8 16.845 22.655 14.7 20 14.7C17.345 14.7 15.2 16.845 15.2 19.5Z" fill="#F9F9F9"/>
</svg>
