<svg width="41" height="41" viewBox="0 0 41 41" fill="none" xmlns="http://www.w3.org/2000/svg">
<path d="M34.1667 3.41675C35.1097 3.41675 35.875 4.18208 35.875 5.12508V11.5433L20.5017 26.9183L20.4915 34.1582L27.745 34.1685L35.875 26.0385V35.8751C35.875 36.8181 35.1097 37.5834 34.1667 37.5834H6.83333C5.89033 37.5834 5.125 36.8181 5.125 35.8751V5.12508C5.125 4.18208 5.89033 3.41675 6.83333 3.41675H34.1667ZM37.2041 15.0471L39.6197 17.4627L26.3323 30.7501L23.9132 30.7467L23.9167 28.3345L37.2041 15.0471ZM20.5 20.5001H11.9583V23.9167H20.5V20.5001ZM25.625 13.6667H11.9583V17.0834H25.625V13.6667Z" fill="#1D9BF0"/>
</svg>
