<svg width="17" height="17" viewBox="0 0 17 17" fill="none" xmlns="http://www.w3.org/2000/svg">
<path fill-rule="evenodd" clip-rule="evenodd" d="M1.69996 13.6001V4.60198L7.89901 10.801C8.06476 10.9668 8.28235 11.0501 8.49995 11.0501C8.71755 11.0501 8.93515 10.9668 9.1009 10.801L15.3 4.60198V13.6001H1.69996ZM14.0981 3.40036L8.50001 8.99846L2.90191 3.40036H14.0981ZM16.15 1.70018H0.85C0.3808 1.70018 0 2.08013 0 2.55018V14.4502C0 14.9202 0.3808 15.3002 0.85 15.3002H16.15C16.6192 15.3002 17 14.9202 17 14.4502V2.55018C17 2.08013 16.6192 1.70018 16.15 1.70018Z" fill="#B8BCC2"/>
<mask id="mask0_5248_1587" style="mask-type:alpha" maskUnits="userSpaceOnUse" x="0" y="1" width="17" height="15">
<path fill-rule="evenodd" clip-rule="evenodd" d="M1.69996 13.6001V4.60198L7.89901 10.801C8.06476 10.9668 8.28235 11.0501 8.49995 11.0501C8.71755 11.0501 8.93515 10.9668 9.1009 10.801L15.3 4.60198V13.6001H1.69996ZM14.0981 3.40036L8.50001 8.99846L2.90191 3.40036H14.0981ZM16.15 1.70018H0.85C0.3808 1.70018 0 2.08013 0 2.55018V14.4502C0 14.9202 0.3808 15.3002 0.85 15.3002H16.15C16.6192 15.3002 17 14.9202 17 14.4502V2.55018C17 2.08013 16.6192 1.70018 16.15 1.70018Z" fill="white"/>
</mask>
<g mask="url(#mask0_5248_1587)">
</g>
</svg>
