<svg width="41" height="41" viewBox="0 0 41 41" fill="none" xmlns="http://www.w3.org/2000/svg">
<path d="M3.41699 37.5833C3.41699 33.9586 4.85687 30.4825 7.41987 27.9195C9.98286 25.3565 13.459 23.9166 17.0837 23.9166C20.7083 23.9166 24.1845 25.3565 26.7474 27.9195C29.3104 30.4825 30.7503 33.9586 30.7503 37.5833H3.41699ZM17.0837 22.2083C11.4205 22.2083 6.83366 17.6214 6.83366 11.9583C6.83366 6.29513 11.4205 1.70825 17.0837 1.70825C22.7468 1.70825 27.3337 6.29513 27.3337 11.9583C27.3337 17.6214 22.7468 22.2083 17.0837 22.2083ZM29.6621 26.023C32.2753 26.6946 34.6099 28.1735 36.3337 30.2491C38.0575 32.3247 39.0826 34.8912 39.2629 37.5833H34.167C34.167 33.1245 32.4587 29.0655 29.6621 26.023ZM26.2062 22.1348C27.6377 20.8544 28.7826 19.2859 29.5657 17.5321C30.3488 15.7784 30.7525 13.8789 30.7503 11.9583C30.754 9.62376 30.1568 7.3276 29.0164 5.29063C30.9513 5.67942 32.6919 6.72626 33.9423 8.25321C35.1927 9.78016 35.8757 11.693 35.8753 13.6666C35.8758 14.8837 35.6161 16.0869 35.1136 17.1954C34.6111 18.304 33.8775 19.2924 32.9619 20.0943C32.0462 20.8962 30.9698 21.4931 29.8046 21.845C28.6395 22.1969 27.4126 22.2957 26.2062 22.1348Z" fill="#1D9BF0"/>
</svg>
