<svg width="30" height="30" viewBox="0 0 30 30" fill="none" xmlns="http://www.w3.org/2000/svg">
<path d="M15 30C23.2843 30 30 23.2843 30 15C30 6.71573 23.2843 0 15 0C6.71573 0 0 6.71573 0 15C0 23.2843 6.71573 30 15 30Z" fill="url(#paint0_linear_76_6210)"/>
<path d="M18.1862 6.66687H11.8195C8.97952 6.66687 6.67285 8.97354 6.67285 11.8135V18.1802C6.67285 21.0202 8.97952 23.3269 11.8195 23.3269H18.1862C21.0262 23.3269 23.3329 21.0202 23.3329 18.1802V11.8135C23.3329 8.97354 21.0262 6.66687 18.1862 6.66687ZM21.4729 18.1869C21.4729 20.0002 19.9995 21.4802 18.1795 21.4802H11.8129C9.99952 21.4802 8.51952 20.0069 8.51952 18.1869V11.8202C8.51952 10.0069 9.99285 8.52687 11.8129 8.52687H18.1795C19.9929 8.52687 21.4729 10.0002 21.4729 11.8202V18.1869Z" fill="white"/>
<path d="M15.0002 10.7399C12.6536 10.7399 10.7402 12.6532 10.7402 14.9999C10.7402 17.3465 12.6536 19.2599 15.0002 19.2599C17.3469 19.2599 19.2602 17.3465 19.2602 14.9999C19.2602 12.6532 17.3469 10.7399 15.0002 10.7399ZM15.0002 17.5865C13.5736 17.5865 12.4136 16.4265 12.4136 14.9999C12.4136 13.5732 13.5736 12.4132 15.0002 12.4132C16.4269 12.4132 17.5869 13.5732 17.5869 14.9999C17.5869 16.4265 16.4269 17.5865 15.0002 17.5865Z" fill="white"/>
<path d="M19.5846 11.2068C19.9771 11.1432 20.2437 10.7735 20.18 10.381C20.1164 9.98852 19.7467 9.72193 19.3542 9.78556C18.9617 9.84918 18.6951 10.2189 18.7588 10.6114C18.8224 11.0039 19.1921 11.2705 19.5846 11.2068Z" fill="white"/>
<defs>
<linearGradient id="paint0_linear_76_6210" x1="3.5786" y1="26.4214" x2="24.8953" y2="5.10473" gradientUnits="userSpaceOnUse">
<stop stop-color="#FEE411"/>
<stop offset="0.0518459" stop-color="#FEDB16"/>
<stop offset="0.1381" stop-color="#FEC125"/>
<stop offset="0.2481" stop-color="#FE983D"/>
<stop offset="0.3762" stop-color="#FE5F5E"/>
<stop offset="0.5" stop-color="#FE2181"/>
<stop offset="1" stop-color="#9000DC"/>
</linearGradient>
</defs>
</svg>
