<svg width="65" height="65" viewBox="0 0 65 65" fill="none" xmlns="http://www.w3.org/2000/svg">
<path d="M45.6361 0H19.3639C8.68658 0 0 8.68658 0 19.3639V45.6361C0 56.3134 8.68658 65 19.3639 65H45.6361C56.3134 65 65 56.3134 65 45.6361V19.3639C64.9999 8.68658 56.3133 0 45.6361 0ZM58.461 45.6361C58.461 52.7191 52.7191 58.461 45.6361 58.461H19.3639C12.2809 58.461 6.539 52.7191 6.539 45.6361V19.3639C6.539 12.2808 12.2809 6.539 19.3639 6.539H45.6361C52.7191 6.539 58.461 12.2808 58.461 19.3639V45.6361Z" fill="url(#paint0_linear_76_2865)"/>
<path d="M32.4988 15.688C23.229 15.688 15.6875 23.2295 15.6875 32.4992C15.6875 41.7688 23.229 49.3105 32.4988 49.3105C41.7686 49.3105 49.3101 41.769 49.3101 32.4992C49.3101 23.2294 41.7686 15.688 32.4988 15.688ZM32.4988 42.7716C26.8255 42.7716 22.2265 38.1726 22.2265 32.4993C22.2265 26.826 26.8256 22.227 32.4988 22.227C38.1721 22.227 42.7711 26.826 42.7711 32.4993C42.7711 38.1725 38.172 42.7716 32.4988 42.7716Z" fill="url(#paint1_linear_76_2865)"/>
<path d="M49.3447 19.8433C51.5695 19.8433 53.3731 18.0397 53.3731 15.815C53.3731 13.5902 51.5695 11.7866 49.3447 11.7866C47.12 11.7866 45.3164 13.5902 45.3164 15.815C45.3164 18.0397 47.12 19.8433 49.3447 19.8433Z" fill="url(#paint2_linear_76_2865)"/>
<defs>
<linearGradient id="paint0_linear_76_2865" x1="32.5" y1="64.8108" x2="32.5" y2="0.504866" gradientUnits="userSpaceOnUse">
<stop stop-color="#E09B3D"/>
<stop offset="0.3" stop-color="#C74C4D"/>
<stop offset="0.6" stop-color="#C21975"/>
<stop offset="1" stop-color="#7024C4"/>
</linearGradient>
<linearGradient id="paint1_linear_76_2865" x1="32.4988" y1="64.8101" x2="32.4988" y2="0.504172" gradientUnits="userSpaceOnUse">
<stop stop-color="#E09B3D"/>
<stop offset="0.3" stop-color="#C74C4D"/>
<stop offset="0.6" stop-color="#C21975"/>
<stop offset="1" stop-color="#7024C4"/>
</linearGradient>
<linearGradient id="paint2_linear_76_2865" x1="49.3447" y1="64.8108" x2="49.3447" y2="0.504924" gradientUnits="userSpaceOnUse">
<stop stop-color="#E09B3D"/>
<stop offset="0.3" stop-color="#C74C4D"/>
<stop offset="0.6" stop-color="#C21975"/>
<stop offset="1" stop-color="#7024C4"/>
</linearGradient>
</defs>
</svg>
