<svg width="40" height="40" viewBox="0 0 40 40" fill="none" xmlns="http://www.w3.org/2000/svg">
<g clip-path="url(#clip0_480_24076)">
<path d="M34.0809 34.0818H28.1542V24.8001C28.1542 22.5868 28.1147 19.7376 25.0717 19.7376C21.9848 19.7376 21.5125 22.1492 21.5125 24.639V34.0812H15.5859V14.9943H21.2754V17.6028H21.3551C21.9245 16.6292 22.7473 15.8282 23.7359 15.2853C24.7244 14.7423 25.8418 14.4777 26.9689 14.5195C32.9759 14.5195 34.0834 18.4707 34.0834 23.611L34.0809 34.0818ZM8.8984 12.3854C6.99887 12.3857 5.45871 10.846 5.4584 8.9465C5.45809 7.04697 6.99762 5.50682 8.89715 5.5065C10.7967 5.50604 12.3368 7.04572 12.3371 8.94525C12.3373 9.85745 11.9751 10.7323 11.3302 11.3775C10.6853 12.0226 9.81059 12.3852 8.8984 12.3854ZM11.8618 34.082H5.92887V14.9943H11.8617V34.0818L11.8618 34.082ZM37.0356 0.00228562H2.95074C1.3398 -0.0158394 0.0187109 1.27463 -0.000976562 2.88557V37.1126C0.0180859 38.7243 1.33902 40.016 2.95059 39.9992H37.0356C38.6506 40.0192 39.9767 38.7274 39.999 37.1126V2.88291C39.9761 1.26885 38.6498 -0.0214644 37.0356 -0.000370627" fill="#0A66C2"/>
</g>
<defs>
<clipPath id="clip0_480_24076">
<rect width="40" height="40" fill="white"/>
</clipPath>
</defs>
</svg>
