<svg width="65" height="65" viewBox="0 0 65 65" fill="none" xmlns="http://www.w3.org/2000/svg">
<path d="M0 32.5C0 14.5507 14.5507 0 32.5 0C50.4493 0 65 14.5507 65 32.5C65 50.4493 50.4493 65 32.5 65C14.5507 65 0 50.4493 0 32.5Z" fill="#0077B5"/>
<path fill-rule="evenodd" clip-rule="evenodd" d="M24.2858 16.8224C24.2858 18.9472 22.6864 20.6474 20.1183 20.6474H20.0712C17.5985 20.6474 16 18.9472 16 16.8224C16 14.6526 17.6472 13 20.1668 13C22.6864 13 24.238 14.6526 24.2858 16.8224ZM23.8006 23.668V45.7974H16.4354V23.668H23.8006ZM50.3625 45.7974L50.3628 33.1091C50.3628 26.3119 46.7293 23.1483 41.8826 23.1483C37.9722 23.1483 36.2214 25.2962 35.2439 26.803V23.6686H27.8778C27.9749 25.7451 27.8778 45.798 27.8778 45.798H35.2439V33.4391C35.2439 32.7777 35.2917 32.1179 35.4864 31.6444C36.0187 30.3231 37.2307 28.9552 39.2655 28.9552C41.9318 28.9552 42.9976 30.9844 42.9976 33.9581V45.7974H50.3625Z" fill="white"/>
</svg>
