<svg width="19" height="19" viewBox="0 0 19 19" fill="none" xmlns="http://www.w3.org/2000/svg">
<path fill-rule="evenodd" clip-rule="evenodd" d="M9.50002 0.00050354C5.30957 0.00050354 1.90002 3.4091 1.90002 7.6005C1.90002 14.7198 8.73717 18.7089 9.02882 18.8751C9.17417 18.9587 9.33757 19.0005 9.50002 19.0005C9.66247 19.0005 9.82588 18.9587 9.97122 18.8751C10.2629 18.7089 17.1 14.7198 17.1 7.6005C17.1 3.4091 13.6905 0.00050354 9.50002 0.00050354ZM9.49907 16.9229C8.05412 15.9434 3.80002 12.6308 3.80002 7.6005C3.80002 4.45695 6.35647 1.9005 9.50002 1.9005C12.6436 1.9005 15.2 4.45695 15.2 7.6005C15.2 12.6127 10.9421 15.9396 9.49907 16.9229ZM9.50002 9.5C8.45217 9.5 7.60002 8.64785 7.60002 7.6C7.60002 6.55215 8.45217 5.7 9.50002 5.7C10.5479 5.7 11.4 6.55215 11.4 7.6C11.4 8.64785 10.5479 9.5 9.50002 9.5ZM9.50002 3.8C7.40432 3.8 5.70002 5.5043 5.70002 7.6C5.70002 9.6957 7.40432 11.4 9.50002 11.4C11.5957 11.4 13.3 9.6957 13.3 7.6C13.3 5.5043 11.5957 3.8 9.50002 3.8Z" fill="#B8BCC2"/>
<mask id="mask0_5248_1634" style="mask-type:alpha" maskUnits="userSpaceOnUse" x="1" y="0" width="17" height="20">
<path fill-rule="evenodd" clip-rule="evenodd" d="M9.50002 0.00050354C5.30957 0.00050354 1.90002 3.4091 1.90002 7.6005C1.90002 14.7198 8.73717 18.7089 9.02882 18.8751C9.17417 18.9587 9.33757 19.0005 9.50002 19.0005C9.66247 19.0005 9.82588 18.9587 9.97122 18.8751C10.2629 18.7089 17.1 14.7198 17.1 7.6005C17.1 3.4091 13.6905 0.00050354 9.50002 0.00050354ZM9.49907 16.9229C8.05412 15.9434 3.80002 12.6308 3.80002 7.6005C3.80002 4.45695 6.35647 1.9005 9.50002 1.9005C12.6436 1.9005 15.2 4.45695 15.2 7.6005C15.2 12.6127 10.9421 15.9396 9.49907 16.9229ZM9.50002 9.5C8.45217 9.5 7.60002 8.64785 7.60002 7.6C7.60002 6.55215 8.45217 5.7 9.50002 5.7C10.5479 5.7 11.4 6.55215 11.4 7.6C11.4 8.64785 10.5479 9.5 9.50002 9.5ZM9.50002 3.8C7.40432 3.8 5.70002 5.5043 5.70002 7.6C5.70002 9.6957 7.40432 11.4 9.50002 11.4C11.5957 11.4 13.3 9.6957 13.3 7.6C13.3 5.5043 11.5957 3.8 9.50002 3.8Z" fill="white"/>
</mask>
<g mask="url(#mask0_5248_1634)">
</g>
</svg>
