<svg width="60" height="48" viewBox="0 0 60 48" fill="none" xmlns="http://www.w3.org/2000/svg">
<path d="M16.3043 41.5C17.1328 41.5 17.8043 40.8284 17.8043 40C17.8043 39.1716 17.1328 38.5 16.3043 38.5V41.5ZM49.5 23.8298C49.5 24.6582 50.1716 25.3298 51 25.3298C51.8284 25.3298 52.5 24.6582 52.5 23.8298H49.5ZM16.3043 38.5H4V41.5H16.3043V38.5ZM3.5 38V4H0.5V38H3.5ZM4 3.5H49V0.5H4V3.5ZM49.5 4V23.8298H52.5V4H49.5ZM49 3.5C49.2761 3.5 49.5 3.72386 49.5 4H52.5C52.5 2.067 50.933 0.5 49 0.5V3.5ZM3.5 4C3.5 3.72386 3.72386 3.5 4 3.5V0.5C2.067 0.5 0.5 2.067 0.5 4H3.5ZM4 38.5C3.72386 38.5 3.5 38.2761 3.5 38H0.5C0.5 39.933 2.067 41.5 4 41.5V38.5Z" fill="url(#paint0_linear_79_6369)"/>
<path d="M22.992 42C22.9387 42 22.88 41.952 22.816 41.856C22.7627 41.76 22.7147 41.648 22.672 41.52C22.6293 41.3813 22.608 41.2587 22.608 41.152C22.608 41.0667 22.624 41.0027 22.656 40.96L29.216 32.016H23.456C23.2427 32.016 23.136 31.8347 23.136 31.472V31.344C23.136 30.9813 23.2427 30.8 23.456 30.8H30.784C30.8267 30.8 30.8747 30.848 30.928 30.944C30.9813 31.04 31.0293 31.152 31.072 31.28C31.1147 31.408 31.136 31.5307 31.136 31.648C31.136 31.7227 31.12 31.7867 31.088 31.84L24.528 40.784H30.784C30.9973 40.784 31.104 40.9653 31.104 41.328V41.456C31.104 41.8187 30.9973 42 30.784 42H22.992ZM33.6194 42.032C33.1927 42.032 32.9794 41.9147 32.9794 41.68V31.12C32.9794 30.8853 33.1927 30.768 33.6194 30.768H33.9554C34.1367 30.768 34.2754 30.7893 34.3714 30.832C34.4674 30.8747 34.5527 30.9547 34.6274 31.072L39.6514 38.656C39.758 38.816 39.854 38.976 39.9394 39.136C40.0247 39.2853 40.1047 39.4453 40.1794 39.616L40.2434 39.6C40.2327 39.4187 40.222 39.2533 40.2114 39.104C40.2114 38.944 40.2114 38.7467 40.2114 38.512V31.12C40.2114 30.8853 40.4247 30.768 40.8514 30.768H40.9634C41.39 30.768 41.6034 30.8853 41.6034 31.12V41.68C41.6034 41.9147 41.39 42.032 40.9634 42.032H40.6434C40.494 42.032 40.3767 42.016 40.2914 41.984C40.206 41.9413 40.1367 41.8827 40.0834 41.808L34.9314 34.032C34.8247 33.872 34.7287 33.7173 34.6434 33.568C34.5687 33.408 34.4887 33.2427 34.4034 33.072L34.3394 33.088C34.3607 33.2693 34.3714 33.44 34.3714 33.6C34.3714 33.7493 34.3714 33.9413 34.3714 34.176V41.68C34.3714 41.9147 34.158 42.032 33.7314 42.032H33.6194ZM46.6234 42.096C45.9407 42.096 45.3327 42.016 44.7994 41.856C44.266 41.696 43.8714 41.52 43.6154 41.328C43.4127 41.1787 43.3114 41.0453 43.3114 40.928C43.3114 40.8427 43.3434 40.7307 43.4074 40.592C43.482 40.4533 43.562 40.3307 43.6474 40.224C43.7434 40.1173 43.818 40.064 43.8714 40.064C43.9034 40.064 43.946 40.08 43.9994 40.112C44.0634 40.1333 44.1327 40.1707 44.2074 40.224C44.4207 40.3413 44.73 40.48 45.1354 40.64C45.5407 40.8 46.0367 40.88 46.6234 40.88C47.0287 40.88 47.386 40.8053 47.6954 40.656C48.0154 40.496 48.266 40.272 48.4474 39.984C48.6287 39.696 48.7194 39.3653 48.7194 38.992C48.7194 38.5653 48.602 38.224 48.3674 37.968C48.1434 37.7013 47.8447 37.4827 47.4714 37.312C47.1087 37.1413 46.7194 36.976 46.3034 36.816C45.962 36.688 45.626 36.5493 45.2954 36.4C44.9647 36.24 44.666 36.048 44.3994 35.824C44.1327 35.6 43.9194 35.3173 43.7594 34.976C43.5994 34.624 43.5194 34.1867 43.5194 33.664C43.5194 33.088 43.6634 32.576 43.9514 32.128C44.25 31.68 44.666 31.3333 45.1994 31.088C45.7327 30.832 46.3567 30.704 47.0714 30.704C47.2954 30.704 47.546 30.7253 47.8234 30.768C48.1114 30.8107 48.3887 30.8747 48.6554 30.96C48.9327 31.0453 49.1567 31.1467 49.3274 31.264C49.5407 31.392 49.6474 31.5307 49.6474 31.68C49.6474 31.7547 49.6154 31.8613 49.5514 32C49.4874 32.1387 49.4127 32.2613 49.3274 32.368C49.2527 32.4747 49.1887 32.528 49.1354 32.528C49.0927 32.528 49.034 32.512 48.9594 32.48C48.8954 32.4373 48.81 32.3893 48.7034 32.336C48.5327 32.2507 48.314 32.16 48.0474 32.064C47.7807 31.968 47.4447 31.92 47.0394 31.92C46.6447 31.92 46.2874 31.9893 45.9674 32.128C45.658 32.2667 45.4127 32.4693 45.2314 32.736C45.0607 33.0027 44.9754 33.3333 44.9754 33.728C44.9754 34.112 45.0767 34.416 45.2794 34.64C45.482 34.864 45.7487 35.0507 46.0794 35.2C46.41 35.3387 46.7674 35.4827 47.1514 35.632C47.5034 35.7707 47.8554 35.9253 48.2074 36.096C48.57 36.256 48.9007 36.4587 49.1994 36.704C49.498 36.9493 49.7327 37.2587 49.9034 37.632C50.0847 37.9947 50.1754 38.448 50.1754 38.992C50.1754 39.472 50.09 39.904 49.9194 40.288C49.7594 40.672 49.5194 40.9973 49.1994 41.264C48.89 41.5307 48.5167 41.7387 48.0794 41.888C47.6527 42.0267 47.1674 42.096 46.6234 42.096Z" fill="#0070BC"/>
<defs>
<linearGradient id="paint0_linear_79_6369" x1="51" y1="2" x2="66.1687" y2="13.1379" gradientUnits="userSpaceOnUse">
<stop stop-color="#0070BC"/>
<stop offset="1" stop-color="#0070BC" stop-opacity="0"/>
</linearGradient>
</defs>
</svg>
