<svg width="44" height="44" viewBox="0 0 44 44" fill="none" xmlns="http://www.w3.org/2000/svg">
<path d="M31.3207 28.9886C33.0447 27.167 34.1972 24.8801 34.6357 22.4106C35.0742 19.941 34.7794 17.3972 33.7878 15.0934C32.7962 12.7896 31.1513 10.8268 29.0563 9.44776C26.9613 8.06869 24.5081 7.33373 22 7.33373C19.4919 7.33373 17.0387 8.06869 14.9437 9.44776C12.8488 10.8268 11.2038 12.7896 10.2122 15.0934C9.22061 17.3972 8.92583 19.941 9.3643 22.4106C9.80277 24.8801 10.9553 27.167 12.6793 28.9886C13.6687 27.4098 15.0432 26.1084 16.6736 25.2066C18.304 24.3048 20.1368 23.8323 22 23.8333C23.8632 23.8323 25.696 24.3048 27.3264 25.2066C28.9568 26.1084 30.3313 27.4098 31.3207 28.9886ZM22 43.5013L10.3327 31.8339C8.02513 29.5264 6.45368 26.5863 5.81704 23.3857C5.1804 20.185 5.50716 16.8674 6.75601 13.8524C8.00487 10.8375 10.1197 8.26052 12.8331 6.44749C15.5465 4.63445 18.7366 3.66675 22 3.66675C25.2634 3.66675 28.4535 4.63445 31.1669 6.44749C33.8803 8.26052 35.9951 10.8375 37.244 13.8524C38.4928 16.8674 38.8196 20.185 38.183 23.3857C37.5463 26.5863 35.9749 29.5264 33.6673 31.8339L22 43.5013ZM22 21.9999C20.5413 21.9999 19.1424 21.4205 18.1109 20.389C17.0795 19.3576 16.5 17.9586 16.5 16.4999C16.5 15.0412 17.0795 13.6423 18.1109 12.6109C19.1424 11.5794 20.5413 10.9999 22 10.9999C23.4587 10.9999 24.8576 11.5794 25.8891 12.6109C26.9205 13.6423 27.5 15.0412 27.5 16.4999C27.5 17.9586 26.9205 19.3576 25.8891 20.389C24.8576 21.4205 23.4587 21.9999 22 21.9999Z" fill="#1D9BF0"/>
</svg>
