<svg width="17" height="17" viewBox="0 0 17 17" fill="none" xmlns="http://www.w3.org/2000/svg">
<path fill-rule="evenodd" clip-rule="evenodd" d="M1.70093 13.6001V4.602L7.89998 10.801C8.06573 10.9668 8.28333 11.0501 8.50093 11.0501C8.71853 11.0501 8.93613 10.9668 9.10188 10.801L15.3009 4.602V13.6001H1.70093ZM14.0991 3.40037L8.50099 8.99847L2.90289 3.40037H14.0991ZM16.151 1.7002H0.850977C0.381777 1.7002 0.000976562 2.08015 0.000976562 2.5502V14.4502C0.000976562 14.9202 0.381777 15.3002 0.850977 15.3002H16.151C16.6202 15.3002 17.001 14.9202 17.001 14.4502V2.5502C17.001 2.08015 16.6202 1.7002 16.151 1.7002Z" fill="#AAB4BD"/>
<mask id="mask0_1089_5530" style="mask-type:alpha" maskUnits="userSpaceOnUse" x="0" y="1" width="18" height="15">
<path fill-rule="evenodd" clip-rule="evenodd" d="M1.70093 13.6001V4.602L7.89998 10.801C8.06573 10.9668 8.28333 11.0501 8.50093 11.0501C8.71853 11.0501 8.93613 10.9668 9.10188 10.801L15.3009 4.602V13.6001H1.70093ZM14.0991 3.40037L8.50099 8.99847L2.90289 3.40037H14.0991ZM16.151 1.7002H0.850977C0.381777 1.7002 0.000976562 2.08015 0.000976562 2.5502V14.4502C0.000976562 14.9202 0.381777 15.3002 0.850977 15.3002H16.151C16.6202 15.3002 17.001 14.9202 17.001 14.4502V2.5502C17.001 2.08015 16.6202 1.7002 16.151 1.7002Z" fill="white"/>
</mask>
<g mask="url(#mask0_1089_5530)">
</g>
</svg>
