<svg width="65" height="65" viewBox="0 0 65 65" fill="none" xmlns="http://www.w3.org/2000/svg">
<path d="M0 32.5C0 14.5507 14.5507 0 32.5 0C50.4493 0 65 14.5507 65 32.5C65 50.4493 50.4493 65 32.5 65C14.5507 65 0 50.4493 0 32.5Z" fill="white"/>
<path d="M37.917 21.667V29.6448L40.5184 31.4003C40.587 31.4218 40.7357 31.4233 40.8043 31.4003L52.0003 23.3107C52.0003 22.3533 51.167 21.667 50.6968 21.667H37.917Z" fill="#0072C6"/>
<path d="M37.9184 31.8421L40.2921 33.5199C40.6265 33.7728 41.0295 33.5199 41.0295 33.5199C40.6279 33.7728 52.0003 26 52.0003 26V40.0752C52.0003 41.6074 51.0472 42.25 49.9754 42.25H37.917V31.8421H37.9184Z" fill="#0072C6"/>
<path d="M25.5153 28.167C24.6696 28.167 23.9957 28.5654 23.4981 29.3608C23.0005 30.1562 22.751 31.2092 22.751 32.5198C22.751 33.8499 23.0005 34.9014 23.4981 35.6743C23.9957 36.4487 24.6487 36.8337 25.4556 36.8337C26.2879 36.8337 26.9483 36.4577 27.4355 35.7058C27.9226 34.9538 28.1676 33.9098 28.1676 32.5752C28.1676 31.1837 27.9316 30.1007 27.4579 29.3263C26.9842 28.5534 26.3372 28.167 25.5153 28.167Z" fill="#0072C6"/>
<path fill-rule="evenodd" clip-rule="evenodd" d="M14.084 47.2394V17.3944L36.834 13V52L14.084 47.2394ZM25.5458 39.258C27.0928 39.258 28.3462 38.6252 29.3076 37.3625C30.269 36.0999 30.7504 34.4359 30.7489 32.372C30.7489 30.3638 30.2851 28.7466 29.3575 27.5192C28.4314 26.2917 27.2161 25.6794 25.7146 25.6794C24.125 25.6794 22.8481 26.321 21.8838 27.6026C20.9195 28.8843 20.438 30.563 20.438 32.6386C20.438 34.6043 20.9136 36.198 21.8618 37.4226C22.8114 38.6457 24.0384 39.258 25.5458 39.258Z" fill="#0072C6"/>
</svg>
