<svg width="15" height="15" viewBox="0 0 15 15" fill="none" xmlns="http://www.w3.org/2000/svg">
<path d="M12.4546 0.000244141C12.1209 0.00105218 11.7906 0.0679255 11.4829 0.197006C11.1752 0.326087 10.8961 0.51482 10.6617 0.752317L0.905696 10.5077L0.867444 10.7008L0.192491 14.0941L0 14.9998L0.906313 14.8073L4.29959 14.1323L4.49208 14.0934L14.248 4.33808C14.4862 4.10409 14.6753 3.825 14.8044 3.51713C14.9335 3.20925 15 2.87874 15 2.54489C15 2.21104 14.9335 1.88053 14.8044 1.57266C14.6753 1.26478 14.4862 0.985699 14.248 0.7517C14.0135 0.514241 13.7343 0.325579 13.4265 0.196603C13.1186 0.0676267 12.7883 0.000890078 12.4546 0.000244141ZM12.4546 1.17617C12.7655 1.17617 13.0789 1.31807 13.38 1.61976C13.9803 2.21945 13.9803 2.87034 13.38 3.47064L12.937 3.89449L11.1046 2.06274L11.5291 1.61976C11.8308 1.31807 12.1436 1.17617 12.4546 1.17617ZM10.2378 2.9308L12.069 4.76255L4.60807 12.2228C4.20528 11.4348 3.56403 10.7939 2.7757 10.3917L10.2378 2.9308ZM1.98599 11.3949C2.35113 11.5418 2.68281 11.7609 2.96112 12.0393C3.23942 12.3176 3.45861 12.6492 3.60551 13.0144L1.58065 13.4191L1.98599 11.3949Z" fill="#F9F9F9"/>
</svg>
