<svg width="41" height="41" viewBox="0 0 41 41" fill="none" xmlns="http://www.w3.org/2000/svg">
<path d="M13.6663 30.75H31.1546L34.1663 33.116V15.375H35.8747C36.3278 15.375 36.7623 15.555 37.0827 15.8754C37.403 16.1957 37.583 16.6303 37.583 17.0833V40.1458L29.9724 34.1667H15.3747C14.9216 34.1667 14.4871 33.9867 14.1667 33.6663C13.8463 33.3459 13.6663 32.9114 13.6663 32.4583V30.75ZM9.31863 27.3333L1.70801 33.3125V6.83333C1.70801 6.38026 1.88799 5.94573 2.20837 5.62536C2.52874 5.30498 2.96326 5.125 3.41634 5.125H29.0413C29.4944 5.125 29.9289 5.30498 30.2493 5.62536C30.5697 5.94573 30.7497 6.38026 30.7497 6.83333V27.3333H9.31863Z" fill="#1D9BF0"/>
</svg>
