<svg width="40" height="40" viewBox="0 0 40 40" fill="none" xmlns="http://www.w3.org/2000/svg">
<g clip-path="url(#clip0_6_14522)">
<path d="M34.0809 34.0824H28.1542V24.8007C28.1542 22.5874 28.1147 19.7382 25.0717 19.7382C21.9848 19.7382 21.5125 22.1498 21.5125 24.6396V34.0818H15.5859V14.9949H21.2754V17.6034H21.3551C21.9245 16.6298 22.7473 15.8289 23.7359 15.2859C24.7244 14.7429 25.8418 14.4783 26.9689 14.5201C32.9759 14.5201 34.0834 18.4713 34.0834 23.6117L34.0809 34.0824V34.0824ZM8.8984 12.386C6.99887 12.3863 5.45871 10.8467 5.4584 8.94713C5.45809 7.0476 6.99762 5.50744 8.89715 5.50713C10.7967 5.50666 12.3368 7.04635 12.3371 8.94588C12.3373 9.85807 11.9751 10.733 11.3302 11.3781C10.6853 12.0233 9.81059 12.3858 8.8984 12.386V12.386ZM11.8618 34.0826H5.92887V14.9949H11.8617V34.0824L11.8618 34.0826ZM37.0356 0.00291123H2.95074C1.3398 -0.0152138 0.0187109 1.27525 -0.000976562 2.88619V37.1132C0.0180859 38.7249 1.33902 40.0167 2.95059 39.9998H37.0356C38.6506 40.0198 39.9767 38.7281 39.999 37.1132V2.88354C39.9761 1.26947 38.6498 -0.0208388 37.0356 0.000254983" fill="#0A66C2"/>
</g>
<defs>
<clipPath id="clip0_6_14522">
<rect width="40" height="40" fill="white"/>
</clipPath>
</defs>
</svg>
