<svg width="40" height="40" viewBox="0 0 40 40" fill="none" xmlns="http://www.w3.org/2000/svg">
<g clip-path="url(#clip0_6_14524)">
<path d="M37.7923 40.0002C39.0114 40.0002 40 39.0117 40 37.7925V2.20766C40 0.988281 39.0114 0 37.7923 0H2.20766C0.988125 0 0 0.988281 0 2.20766V37.7925C0 39.0117 0.988125 40.0002 2.20766 40.0002H37.7923" fill="#395185"/>
<path d="M27.5993 39.9998V24.5096H32.7988L33.5773 18.4729H27.5993V14.6185C27.5993 12.8707 28.0848 11.6796 30.5912 11.6796L33.7879 11.6782V6.27898C33.2348 6.20539 31.3373 6.04102 29.1298 6.04102C24.5207 6.04102 21.3654 8.8543 21.3654 14.0209V18.4729H16.1526V24.5096H21.3654V39.9998H27.5993" fill="white"/>
</g>
<defs>
<clipPath id="clip0_6_14524">
<rect width="40" height="40" fill="white"/>
</clipPath>
</defs>
</svg>
