<svg width="4" height="18" viewBox="0 0 4 18" fill="none" xmlns="http://www.w3.org/2000/svg">
<path fill-rule="evenodd" clip-rule="evenodd" d="M2 13.9999C3.104 13.9999 4 14.8959 4 15.9999C4 17.1039 3.104 17.9999 2 17.9999C0.896 17.9999 0 17.1039 0 15.9999C0 14.8959 0.896 13.9999 2 13.9999ZM2 6.99987C3.104 6.99987 4 7.89587 4 8.99988C4 10.1039 3.104 10.9999 2 10.9999C0.896 10.9999 0 10.1039 0 8.99988C0 7.89587 0.896 6.99987 2 6.99987ZM2 -2.47955e-05C3.104 -2.47955e-05 4 0.895975 4 1.99998C4 3.10398 3.104 3.99998 2 3.99998C0.896 3.99998 0 3.10398 0 1.99998C0 0.895975 0.896 -2.47955e-05 2 -2.47955e-05Z" fill="#AAB4BD"/>
</svg>
