<svg width="65" height="65" viewBox="0 0 65 65" fill="none" xmlns="http://www.w3.org/2000/svg">
<path d="M18.85 37.7C29.2606 37.7 37.7 29.2606 37.7 18.85C37.7 8.43944 29.2606 0 18.85 0C8.43944 0 0 8.43944 0 18.85C0 29.2606 8.43944 37.7 18.85 37.7Z" fill="#28A8EA"/>
<path d="M46.1498 65.0003C56.5604 65.0003 64.9998 56.5609 64.9998 46.1503C64.9998 35.7397 56.5604 27.3003 46.1498 27.3003C35.7392 27.3003 27.2998 35.7397 27.2998 46.1503C27.2998 56.5609 35.7392 65.0003 46.1498 65.0003Z" fill="#28A8EA"/>
<path d="M32.4999 63.6999C49.7311 63.6999 63.6999 49.7311 63.6999 32.4999C63.6999 15.2685 49.7311 1.2998 32.4999 1.2998C15.2685 1.2998 1.2998 15.2685 1.2998 32.4999C1.2998 49.7311 15.2685 63.6999 32.4999 63.6999Z" fill="#28A8EA"/>
<path fill-rule="evenodd" clip-rule="evenodd" d="M24.4087 31.9075C23.189 31.1039 22.1713 30.0295 21.4353 28.768C20.7241 27.4359 20.373 25.9413 20.4167 24.4318C20.3626 22.5162 21.0162 20.6477 22.2527 19.1836C23.5374 17.7132 25.1887 16.6095 27.0386 15.9847C29.051 15.2741 31.1712 14.9173 33.3054 14.9303C34.702 14.917 36.097 15.024 37.4753 15.2502C38.4611 15.4025 39.4295 15.6526 40.3659 15.9966C41.2261 16.2878 42.0027 16.7839 42.6287 17.4419C43.0901 17.983 43.3386 18.6738 43.3276 19.385C43.3443 19.7542 43.2879 20.1233 43.1618 20.4709C43.0358 20.8185 42.8425 21.1379 42.5931 21.4108C42.3568 21.6623 42.07 21.8609 41.7515 21.9936C41.433 22.1265 41.09 22.1903 40.7449 22.1809C40.2702 22.1774 39.8016 22.0723 39.3709 21.8727C38.3103 21.3981 37.2176 20.9983 36.1011 20.6763C35.073 20.4055 34.0132 20.274 32.9501 20.2853C31.5656 20.234 30.1957 20.5837 29.0051 21.2923C28.5022 21.5977 28.0907 22.0326 27.8135 22.5517C27.5364 23.0706 27.4037 23.6545 27.4295 24.2424C27.4221 25.0133 27.7153 25.757 28.2469 26.3155C28.879 26.9709 29.6259 27.505 30.4504 27.8912C31.3745 28.3495 32.7526 28.9577 34.5848 29.7158C34.7878 29.78 34.9859 29.8592 35.1771 29.9527C36.965 30.6598 38.6791 31.5406 40.2948 32.5828C41.5711 33.4151 42.6473 34.5195 43.446 35.8171C44.232 37.1802 44.6257 38.7342 44.5832 40.3071C44.6493 42.2338 44.0972 44.131 43.0075 45.7213C41.8981 47.2269 40.3633 48.3658 38.6009 48.9912C36.4771 49.7497 34.2331 50.1151 31.9786 50.0694C28.8803 50.1784 25.7966 49.5956 22.9519 48.3634C22.2239 48.0395 21.5855 47.5435 21.0919 46.918C20.6828 46.3452 20.4708 45.655 20.4877 44.9514C20.4672 44.58 20.5276 44.2087 20.6647 43.8631C20.8017 43.5174 21.012 43.2056 21.2812 42.9491C21.8463 42.4541 22.5801 42.1955 23.3306 42.2265C24.166 42.238 24.9865 42.4493 25.7236 42.8425C26.6394 43.3009 27.3621 43.6444 27.8916 43.8734C28.4964 44.1267 29.1229 44.3249 29.7635 44.4656C30.5529 44.6391 31.3596 44.7225 32.1679 44.7144C33.5971 44.8161 35.0192 44.4365 36.2078 43.6365C36.6528 43.2882 37.0084 42.839 37.2454 42.326C37.4822 41.8129 37.5935 41.251 37.57 40.6864C37.5717 39.885 37.2666 39.1134 36.7172 38.53C35.9911 37.7821 35.1417 37.165 34.2058 36.7057C33.1 36.1214 31.544 35.4106 29.5381 34.5732C27.7436 33.8582 26.0251 32.9652 24.4087 31.9075Z" fill="white"/>
<path opacity="0.1" fill-rule="evenodd" clip-rule="evenodd" d="M24.7388 0.948828C23.9145 0.672858 23.0718 0.455647 22.2168 0.298828C17.0839 1.94614 12.4177 4.79392 8.60584 8.60583C4.79393 12.4177 1.94614 17.0838 0.298828 22.2168C0.455676 23.0718 0.672886 23.9145 0.948828 24.7388C1.17929 25.4851 1.4706 26.2112 1.81982 26.9098C2.94905 20.6702 5.95671 14.9242 10.4404 10.4405C14.9242 5.95671 20.6702 2.94905 26.9098 1.81982C26.2112 1.47064 25.4851 1.17933 24.7388 0.948828Z" fill="black"/>
<path opacity="0.1" fill-rule="evenodd" clip-rule="evenodd" d="M24.7393 0.949219C18.9819 2.36922 13.7223 5.33617 9.52923 9.52923C5.33617 13.7223 2.36922 18.9818 0.949219 24.7392C1.17968 25.4855 1.47099 26.2116 1.82022 26.9102C2.94944 20.6706 5.9571 14.9246 10.4408 10.4409C14.9245 5.9571 20.6707 2.94944 26.9103 1.82022C26.2116 1.47103 25.4855 1.17972 24.7393 0.949219Z" fill="black"/>
<path opacity="0.1" fill-rule="evenodd" clip-rule="evenodd" d="M64.0508 40.2608C63.8204 39.5146 63.5291 38.7885 63.1798 38.0898C62.0507 44.3294 59.043 50.0754 54.5592 54.5592C50.0756 59.0429 44.3296 62.0506 38.0898 63.1798C38.7885 63.5289 39.5146 63.8204 40.2608 64.0508C41.0851 64.3267 41.928 64.5439 42.7828 64.7008C47.9159 63.0535 52.582 60.2057 56.3938 56.3937C60.2058 52.5819 63.0536 47.9158 64.7008 42.7828C64.544 41.9278 64.3268 41.085 64.0508 40.2608Z" fill="black"/>
<path opacity="0.1" fill-rule="evenodd" clip-rule="evenodd" d="M63.1798 38.0898C62.0507 44.3294 59.043 50.0754 54.5592 54.5592C50.0756 59.0429 44.3296 62.0506 38.0898 63.1798C38.7885 63.5289 39.5146 63.8204 40.2608 64.0508C46.0182 62.6307 51.2778 59.6639 55.4708 55.4708C59.6639 51.2777 62.6309 46.0181 64.0508 40.2608C63.8204 39.5146 63.5291 38.7885 63.1798 38.0898Z" fill="black"/>
</svg>
