<svg width="17" height="17" viewBox="0 0 17 17" fill="none" xmlns="http://www.w3.org/2000/svg">
<path fill-rule="evenodd" clip-rule="evenodd" d="M16.6546 0.166196C16.3971 -0.0233544 16.0554 -0.0531044 15.7698 0.0896956L0.469791 7.7397C0.192691 7.87825 0.0124914 8.15705 0.000591402 8.4673C-0.0121586 8.7767 0.146791 9.0691 0.411991 9.2289L5.94974 12.5515V16.1496C5.94974 16.4445 6.10274 16.7174 6.35349 16.8729C6.48949 16.9571 6.64504 16.9996 6.79974 16.9996C6.92979 16.9996 7.05984 16.9698 7.17969 16.9103L10.4717 15.2639L13.162 16.8789C13.2971 16.9588 13.4476 16.9996 13.5997 16.9996C13.7213 16.9996 13.8428 16.9741 13.9559 16.9214C14.2117 16.8041 14.3919 16.5669 14.4378 16.289L16.9878 0.988996C17.0405 0.673646 16.9122 0.355746 16.6546 0.166196ZM12.9665 14.7785L7.9991 11.7984L14.8033 3.75657L12.9665 14.7785ZM7.64975 14.7743V13.5707L8.7437 14.2277L7.64975 14.7743ZM12.8263 3.46158L6.52267 10.9118L2.61437 8.56753L12.8263 3.46158Z" fill="#B8BCC2"/>
<mask id="mask0_5248_1623" style="mask-type:alpha" maskUnits="userSpaceOnUse" x="-1" y="0" width="18" height="17">
<path fill-rule="evenodd" clip-rule="evenodd" d="M16.6546 0.166196C16.3971 -0.0233544 16.0554 -0.0531044 15.7698 0.0896956L0.469791 7.7397C0.192691 7.87825 0.0124914 8.15705 0.000591402 8.4673C-0.0121586 8.7767 0.146791 9.0691 0.411991 9.2289L5.94974 12.5515V16.1496C5.94974 16.4445 6.10274 16.7174 6.35349 16.8729C6.48949 16.9571 6.64504 16.9996 6.79974 16.9996C6.92979 16.9996 7.05984 16.9698 7.17969 16.9103L10.4717 15.2639L13.162 16.8789C13.2971 16.9588 13.4476 16.9996 13.5997 16.9996C13.7213 16.9996 13.8428 16.9741 13.9559 16.9214C14.2117 16.8041 14.3919 16.5669 14.4378 16.289L16.9878 0.988996C17.0405 0.673646 16.9122 0.355746 16.6546 0.166196ZM12.9665 14.7785L7.9991 11.7984L14.8033 3.75657L12.9665 14.7785ZM7.64975 14.7743V13.5707L8.7437 14.2277L7.64975 14.7743ZM12.8263 3.46158L6.52267 10.9118L2.61437 8.56753L12.8263 3.46158Z" fill="white"/>
</mask>
<g mask="url(#mask0_5248_1623)">
</g>
</svg>
