<svg width="65" height="65" viewBox="0 0 65 65" fill="none" xmlns="http://www.w3.org/2000/svg">
<path d="M32.5 65C50.4492 65 65 50.4492 65 32.5C65 14.5508 50.4492 0 32.5 0C14.5508 0 0 14.5508 0 32.5C0 50.4492 14.5508 65 32.5 65Z" fill="url(#paint0_linear_102_1878)"/>
<path d="M12.1039 34.09C15.9031 31.9972 20.1441 30.2506 24.1066 28.4951C30.9238 25.6196 37.768 22.794 44.6813 20.1634C46.0264 19.7152 48.4432 19.2769 48.6802 21.2702C48.5504 24.0917 48.0166 26.8968 47.6504 29.7018C46.7211 35.8703 45.647 42.0176 44.5995 48.1658C44.2386 50.2137 41.6732 51.2739 40.0316 49.9634C36.0867 47.2986 32.1114 44.6599 28.2168 41.9334C26.941 40.6371 28.124 38.7755 29.2634 37.8498C32.5126 34.6477 35.9584 31.9272 39.0378 28.5597C39.8685 26.5537 37.4142 28.2443 36.6046 28.7623C32.1565 31.8275 27.8172 35.08 23.1274 37.774C20.7319 39.0926 17.9399 37.9657 15.5455 37.2299C13.3985 36.341 10.2525 35.4455 12.1037 34.0901L12.1039 34.09Z" fill="white"/>
<defs>
<linearGradient id="paint0_linear_102_1878" x1="24.3788" y1="2.7105" x2="8.12879" y2="40.625" gradientUnits="userSpaceOnUse">
<stop stop-color="#37AEE2"/>
<stop offset="1" stop-color="#1E96C8"/>
</linearGradient>
</defs>
</svg>
