<svg width="16" height="20" viewBox="0 0 16 20" fill="none" xmlns="http://www.w3.org/2000/svg">
<path fill-rule="evenodd" clip-rule="evenodd" d="M13.3713 17.6206C9.2887 17.0222 6.27146 15.36 4.37771 12.7136C1.62667 8.86979 1.95568 3.87466 2.21337 1.96L5.71314 2.54597L5.80263 5.52519L4.606 5.89171C4.24912 6.00141 4.00636 6.32979 4.00603 6.7022C4.0054 8.69689 5.14379 12.8607 9.46398 14.3445C9.81321 14.4606 10.2049 14.3438 10.4247 14.0443L11.1676 13.0332L13.9618 14.0937L13.3713 17.6206ZM15.2164 12.7513L11.1672 11.2131C10.8078 11.0755 10.4059 11.1966 10.1803 11.5047L9.44088 12.5103C6.58599 11.2366 5.91245 8.53034 5.75388 7.31156L6.92062 6.9538C7.28644 6.84215 7.53242 6.49969 7.52061 6.1175L7.38993 1.79464C7.37841 1.39013 7.0821 1.05064 6.6816 0.98358L1.6544 0.141869C1.20865 0.0672378 0.78255 0.353737 0.684698 0.794118C0.617924 1.09519 -0.907247 8.22892 2.98896 13.6855C5.09972 16.641 8.37452 18.5037 12.7356 19.2338C13.1411 19.3017 13.5552 19.3599 13.9786 19.4084C14.4274 19.4595 14.8375 19.1505 14.912 18.7054L15.7526 13.6849C15.8194 13.2858 15.5945 12.8955 15.2164 12.7513Z" fill="#AAB4BD"/>
</svg>
