<svg width="17" height="17" viewBox="0 0 17 17" fill="none" xmlns="http://www.w3.org/2000/svg">
<path fill-rule="evenodd" clip-rule="evenodd" d="M12.7158 9.3503H15.2411C14.9181 11.9258 13.1501 14.0525 10.7761 14.9C11.6473 13.6556 12.5424 11.8111 12.7158 9.3503ZM4.28471 9.3503C4.45726 11.8111 5.35316 13.6556 6.22441 14.9C3.84951 14.0525 2.08236 11.9258 1.75936 9.3503H4.28471ZM4.28471 7.6502H1.75936C2.08236 5.07385 3.84951 2.94715 6.22441 2.0997C5.35316 3.3441 4.45726 5.1886 4.28471 7.6502ZM5.98553 7.65035C6.22863 4.68045 7.69998 2.80705 8.49983 1.99445C9.29968 2.80705 10.771 4.6813 11.015 7.65035H5.98553ZM5.98553 9.3503H11.015C10.7719 12.3202 9.29883 14.1945 8.49983 15.0054C7.70083 14.1927 6.22863 12.3194 5.98553 9.3503ZM12.6997 7.65034C12.5246 5.18959 11.6432 3.33829 10.7728 2.09899C13.1494 2.94559 14.9174 5.07314 15.2412 7.65034H12.6997ZM-0.000244141 8.5003C-0.000244141 13.1864 3.81286 17.0003 8.49976 17.0003C13.1867 17.0003 16.9998 13.1864 16.9998 8.5003C16.9998 3.8134 13.1867 0.000301361 8.49976 0.000301361C3.81286 0.000301361 -0.000244141 3.8134 -0.000244141 8.5003Z" fill="#B8BCC2"/>
<mask id="mask0_5248_1606" style="mask-type:alpha" maskUnits="userSpaceOnUse" x="-1" y="0" width="18" height="18">
<path fill-rule="evenodd" clip-rule="evenodd" d="M12.7158 9.3503H15.2411C14.9181 11.9258 13.1501 14.0525 10.7761 14.9C11.6473 13.6556 12.5424 11.8111 12.7158 9.3503ZM4.28471 9.3503C4.45726 11.8111 5.35316 13.6556 6.22441 14.9C3.84951 14.0525 2.08236 11.9258 1.75936 9.3503H4.28471ZM4.28471 7.6502H1.75936C2.08236 5.07385 3.84951 2.94715 6.22441 2.0997C5.35316 3.3441 4.45726 5.1886 4.28471 7.6502ZM5.98553 7.65035C6.22863 4.68045 7.69998 2.80705 8.49983 1.99445C9.29968 2.80705 10.771 4.6813 11.015 7.65035H5.98553ZM5.98553 9.3503H11.015C10.7719 12.3202 9.29883 14.1945 8.49983 15.0054C7.70083 14.1927 6.22863 12.3194 5.98553 9.3503ZM12.6997 7.65034C12.5246 5.18959 11.6432 3.33829 10.7728 2.09899C13.1494 2.94559 14.9174 5.07314 15.2412 7.65034H12.6997ZM-0.000244141 8.5003C-0.000244141 13.1864 3.81286 17.0003 8.49976 17.0003C13.1867 17.0003 16.9998 13.1864 16.9998 8.5003C16.9998 3.8134 13.1867 0.000301361 8.49976 0.000301361C3.81286 0.000301361 -0.000244141 3.8134 -0.000244141 8.5003Z" fill="white"/>
</mask>
<g mask="url(#mask0_5248_1606)">
</g>
</svg>
