<svg width="65" height="65" viewBox="0 0 65 65" fill="none" xmlns="http://www.w3.org/2000/svg">
<path d="M32.5 65C50.4493 65 65 50.4493 65 32.5C65 14.5507 50.4493 0 32.5 0C14.5507 0 0 14.5507 0 32.5C0 50.4493 14.5507 65 32.5 65Z" fill="#25D366"/>
<path fill-rule="evenodd" clip-rule="evenodd" d="M33.5719 50.5814H33.5639C30.3295 50.5803 27.1514 49.7688 24.3287 48.2291L14.084 50.9165L16.8257 40.9022C15.1345 37.9714 14.2446 34.6469 14.246 31.2408C14.2502 20.5855 22.9197 11.9165 33.5717 11.9165C38.7415 11.9187 43.5937 13.9313 47.2424 17.5842C50.891 21.237 52.8993 26.0924 52.8973 31.256C52.893 41.909 44.227 50.577 33.5719 50.5814ZM24.8034 44.7304L25.39 45.0785C27.8561 46.542 30.6831 47.3163 33.5654 47.3175H33.5719C42.4252 47.3175 49.6308 40.1117 49.6343 31.2548C49.636 26.9628 47.9668 22.9272 44.9342 19.891C41.9016 16.8549 37.8686 15.182 33.5783 15.1805C24.7182 15.1805 17.5125 22.3856 17.5089 31.2418C17.5077 34.2769 18.3569 37.2327 19.9648 39.79L20.3467 40.3978L18.724 46.3251L24.8034 44.7304ZM42.6467 35.4167C42.9835 35.5795 43.2109 35.6894 43.308 35.8515C43.4287 36.0529 43.4287 37.0197 43.0265 38.1478C42.6239 39.2757 40.6948 40.3052 39.767 40.4438C38.9351 40.5682 37.8824 40.62 36.7256 40.2524C36.0243 40.0299 35.1249 39.7328 33.9728 39.2353C29.4459 37.2806 26.3867 32.893 25.8085 32.0638C25.768 32.0057 25.7397 31.9651 25.7238 31.944L25.72 31.9388C25.4644 31.5978 23.7521 29.3132 23.7521 26.9488C23.7521 24.7245 24.8447 23.5586 25.3476 23.022C25.3821 22.9852 25.4138 22.9514 25.4422 22.9204C25.8848 22.437 26.408 22.3161 26.7298 22.3161C27.0517 22.3161 27.374 22.3191 27.6553 22.3332C27.69 22.335 27.7262 22.3348 27.7635 22.3345C28.0449 22.3329 28.3957 22.3308 28.7418 23.1621C28.8749 23.4821 29.0697 23.9564 29.2752 24.4566C29.6907 25.4682 30.1498 26.5858 30.2306 26.7476C30.3513 26.9893 30.4318 27.2712 30.2708 27.5936C30.2467 27.6419 30.2243 27.6876 30.203 27.7311C30.0821 27.9779 29.9932 28.1595 29.788 28.3991C29.7073 28.4933 29.6239 28.5948 29.5405 28.6964C29.3744 28.8987 29.2083 29.101 29.0636 29.2451C28.8219 29.4859 28.5703 29.7471 28.8519 30.2306C29.1336 30.714 30.1027 32.2952 31.5382 33.5757C33.0813 34.9521 34.4225 35.5338 35.1023 35.8287C35.2351 35.8862 35.3426 35.9329 35.4215 35.9724C35.9042 36.2142 36.1859 36.1737 36.4676 35.8515C36.7493 35.5293 37.6747 34.4415 37.9965 33.9581C38.3184 33.4749 38.6404 33.5554 39.083 33.7165C39.5257 33.8778 41.8997 35.0458 42.3826 35.2875C42.4769 35.3347 42.565 35.3773 42.6467 35.4167Z" fill="#FDFDFD"/>
</svg>
